# xmcd
#
# Track frame offsets:
#	150
#	17255
#	29349
#	46958
#	61497
#	78643
#	96104
#	111746
#	127593
#	141600
#	154585
#	172625
#	188445
#	202889
#	218846
#	232962
#	250499
#	264145
#	278209
#	296374
#	309945
#	324874
#
# Disc length: 4508 seconds
#
# Revision: 0
# Processed by: cddbd v1.5.2PL0 Copyright (c) Steve Scherf et al.
# Submitted via: dBpowerAMP V4.0
#
DISCID=21119a16
DTITLE=Various Artist - ERG Nu Country Traxx Vol. 232 CAN
DYEAR=2013
DGENRE=Country
TTITLE0=Dierks Bentley - I Hold On
TTITLE1=Hunter Hayes ft. Jason Mraz  - Everybody's Got Somebody But Me
TTITLE2=Dean Brody - Bounty
TTITLE3=Keith Urban - We Were Us
TTITLE4=Band Perry, The  - Don't Let Me Be Lonely
TTITLE5=Small Town Pistols - Anthem Of A Runaway
TTITLE6=Randy Houser - Goodnight Kiss
TTITLE7=Gary Allan  - It Ain't The Whiskey
TTITLE8=Sara Evans - Slow Me Down
TTITLE9=Chris Janson  - Cut Me Some Slack
TTITLE10=Jimmy Buffett And Toby Keith - Too Drunk To Karaoke
TTITLE11=Krystal Keith - Get Your Redneck On
TTITLE12=Lacs, The  - She's Runnin'
TTITLE13=Steve Holy - Radio Up
TTITLE14=Kellie Pickler - Little Bit Gypsy
TTITLE15=Kristy Lee Cook ft. Randy Houser  (Broken Bow) - Wherever Love Goes
TTITLE16=Morgan Frazier - Hey Bully
TTITLE17=American Young - Love Is War
TTITLE18=Autumn Hill - Fire
TTITLE19=Dylan Scott - Makin' This Boy Go Crazy
TTITLE20=Kinsey Sadler - The Young And The Reckless
TTITLE21=Brothers Osborne - Let's Go There
EXTD=
EXTT0=
EXTT1=
EXTT2=
EXTT3=
EXTT4=
EXTT5=
EXTT6=
EXTT7=
EXTT8=
EXTT9=
EXTT10=
EXTT11=
EXTT12=
EXTT13=
EXTT14=
EXTT15=
EXTT16=
EXTT17=
EXTT18=
EXTT19=
EXTT20=
EXTT21=
PLAYORDER=
